<svg width="41" height="41" viewBox="0 0 41 41" fill="none" xmlns="http://www.w3.org/2000/svg">
<path d="M6.68703 35.8384C6.54179 35.693 6.34023 35.6095 6.13476 35.6095C5.9293 35.6095 5.72773 35.693 5.58242 35.8384C5.43711 35.9838 5.35352 36.1853 5.35352 36.3908C5.35352 36.5962 5.43703 36.7978 5.58242 36.943C5.72773 37.0883 5.9293 37.172 6.13476 37.172C6.34023 37.172 6.54179 37.0884 6.68703 36.943C6.83234 36.7978 6.91601 36.5962 6.91601 36.3908C6.91601 36.1853 6.83242 35.9837 6.68703 35.8384ZM36.7223 14.589C36.5755 14.4429 36.377 14.3606 36.1699 14.3601C35.9645 14.3601 35.7629 14.4436 35.6176 14.589C35.4724 14.7343 35.3887 14.9359 35.3887 15.1414C35.3887 15.3468 35.4723 15.5484 35.6176 15.6936C35.7644 15.8396 35.9629 15.9219 36.1699 15.9226C36.3762 15.9226 36.577 15.839 36.7223 15.6936C36.8683 15.5484 36.9519 15.3468 36.9519 15.1414C36.9519 14.9359 36.8683 14.7343 36.7223 14.589Z" fill="#F1B24A"/>
<path d="M39.8116 0.525825C39.665 0.379317 39.4662 0.29701 39.259 0.296997L20.0408 0.298013C19.6094 0.298013 19.2596 0.647856 19.2596 1.07926V3.3134L11.8542 5.29769C11.4374 5.40941 11.1901 5.83777 11.3018 6.25449L15.1398 20.5781L11.8196 23.8983C11.397 23.2812 10.6875 22.8755 9.88492 22.8755H2.38517C1.09283 22.8755 0.0415039 23.9269 0.0415039 25.2191V37.9532C0.0415039 39.2455 1.09283 40.2969 2.38517 40.2969H9.885C10.9829 40.2969 11.9065 39.5379 12.1596 38.5172L13.0885 39.3273C13.8054 39.9526 14.7246 40.297 15.6758 40.297H39.2592C39.6906 40.297 40.0404 39.9472 40.0404 39.5158V1.07825C40.0403 0.871064 39.958 0.672384 39.8116 0.525825ZM10.6661 37.9533C10.6661 38.384 10.3156 38.7345 9.88484 38.7345H2.38509C1.95431 38.7345 1.60384 38.384 1.60384 37.9533V25.2192C1.60384 24.7884 1.95431 24.438 2.38509 24.438H5.35376V33.4376C5.35376 33.869 5.7036 34.2188 6.13501 34.2188C6.56641 34.2188 6.91626 33.869 6.91626 33.4376V24.438H9.88492C10.3157 24.438 10.6662 24.7884 10.6662 25.2192V37.9533H10.6661ZM13.0132 6.60472L19.2596 4.93097V7.82589L18.736 7.9662C18.6369 7.99273 18.544 8.03852 18.4626 8.10097C18.3812 8.16342 18.3129 8.24129 18.2616 8.33014C18.2103 8.419 18.177 8.51709 18.1636 8.61881C18.1502 8.72054 18.157 8.8239 18.1836 8.923C18.4838 10.0434 17.8165 11.1991 16.6962 11.4993C16.5969 11.5259 16.5039 11.5718 16.4224 11.6343C16.3409 11.6969 16.2726 11.7749 16.2213 11.864C16.17 11.953 16.1368 12.0513 16.1236 12.1531C16.1103 12.255 16.1173 12.3585 16.1441 12.4577L19.1894 23.7341H17.6214L16.8133 20.5728C16.7881 20.4738 16.7436 20.3807 16.6824 20.2988L13.0132 6.60472ZM19.2596 11.4086V18.0009L17.8347 12.7247C18.4299 12.4174 18.917 11.9575 19.2596 11.4086ZM30.4833 38.7344H15.6757C15.102 38.7345 14.5476 38.5267 14.1152 38.1497L12.2286 36.5043V25.6991L15.6394 22.2883L16.258 24.7086C16.3009 24.8767 16.3987 25.0257 16.5357 25.1321C16.6727 25.2386 16.8413 25.2963 17.0148 25.2963L32.3745 25.2973C32.9776 25.2973 33.4682 25.7879 33.4682 26.391C33.4682 26.9941 32.9776 27.4848 32.3745 27.4848H24.5042C24.0728 27.4848 23.7229 27.8346 23.7229 28.266C23.7229 28.6974 24.0728 29.0473 24.5042 29.0473H34.8198C35.4229 29.0473 35.9135 29.5379 35.9135 30.141C35.9135 30.7441 35.4229 31.2348 34.8198 31.2348H24.5042C24.0728 31.2348 23.7229 31.5846 23.7229 32.016C23.7229 32.4474 24.0728 32.7972 24.5042 32.7972H33.1482C33.7513 32.7972 34.2419 33.2879 34.2419 33.891C34.2419 34.4941 33.7513 34.9847 33.1482 34.9847H24.5042C24.0728 34.9847 23.7229 35.3346 23.7229 35.766C23.7229 36.1974 24.0728 36.5472 24.5042 36.5472H30.4833C31.0864 36.5472 31.5771 37.0379 31.5771 37.641C31.577 38.2438 31.0864 38.7344 30.4833 38.7344ZM38.4779 38.7344H32.9029C33.0544 38.4006 33.1395 38.0305 33.1395 37.6407C33.1395 37.2508 33.0544 36.8808 32.9029 36.5469H33.1482C34.6128 36.5469 35.8043 35.3554 35.8043 33.8908C35.8046 33.4779 35.7081 33.0707 35.5224 32.7019C36.6471 32.393 37.4759 31.3622 37.4759 30.1408C37.4765 29.5706 37.2925 29.0155 36.9516 28.5584V18.6569C36.9516 18.2255 36.6017 17.8756 36.1703 17.8756C35.7389 17.8756 35.3891 18.2255 35.3891 18.6569V27.5469C35.2021 27.5057 35.0111 27.4849 34.8196 27.4848H34.794C34.9501 27.1413 35.0308 26.7683 35.0306 26.391C35.0306 24.9263 33.839 23.7348 32.3744 23.7348H31.1186C32.4521 23.163 33.3886 21.8375 33.3886 20.297C33.3886 18.2353 31.7114 16.5581 29.6498 16.5581C27.5882 16.5581 25.911 18.2353 25.911 20.297C25.911 21.8375 26.8476 23.163 28.1811 23.7348H23.9105V8.88003C25.3061 8.57589 26.4074 7.47472 26.7115 6.07902H32.5881C32.8921 7.47472 33.9934 8.57589 35.389 8.88003V11.3089C35.389 11.7403 35.7389 12.0902 36.1703 12.0902C36.6017 12.0902 36.9515 11.7403 36.9515 11.3089V8.18253C36.9515 7.75112 36.6017 7.40128 36.1703 7.40128C35.0103 7.40128 34.0668 6.45761 34.0668 5.29777C34.0668 4.86636 33.717 4.51652 33.2856 4.51652H26.014C25.5826 4.51652 25.2328 4.86636 25.2328 5.29777C25.2328 6.45769 24.2892 7.40128 23.1294 7.40128C22.6979 7.40128 22.3481 7.75112 22.3481 8.18253V23.7348H20.8222V1.86035L38.4779 1.85949V38.7344ZM29.65 22.4734C28.4499 22.4734 27.4736 21.497 27.4736 20.297C27.4736 19.097 28.45 18.1206 29.65 18.1206C30.85 18.1206 31.8263 19.097 31.8263 20.297C31.8263 21.497 30.85 22.4734 29.65 22.4734Z" fill="#F1B24A"/>
</svg>
