<svg width="41" height="41" viewBox="0 0 41 41" fill="none" xmlns="http://www.w3.org/2000/svg">
<path d="M26.3682 15.0356C26.2024 15.0356 26.0434 14.9698 25.9262 14.8526C25.809 14.7354 25.7432 14.5764 25.7432 14.4106V3.78564H15.7432V14.4106C15.7432 14.5764 15.6773 14.7354 15.5601 14.8526C15.4429 14.9698 15.2839 15.0356 15.1182 15.0356C14.9524 15.0356 14.7934 14.9698 14.6762 14.8526C14.559 14.7354 14.4932 14.5764 14.4932 14.4106V3.16064C14.4932 2.99488 14.559 2.83591 14.6762 2.7187C14.7934 2.60149 14.9524 2.53564 15.1182 2.53564H26.3682C26.5339 2.53564 26.6929 2.60149 26.8101 2.7187C26.9273 2.83591 26.9932 2.99488 26.9932 3.16064V14.4106C26.9932 14.5764 26.9273 14.7354 26.8101 14.8526C26.6929 14.9698 26.5339 15.0356 26.3682 15.0356Z" fill="#13BFB6"/>
<path d="M23.8681 15.0356C23.7023 15.0356 23.5433 14.9698 23.4261 14.8526C23.3089 14.7354 23.2431 14.5764 23.2431 14.4106V7.42939C22.9795 7.33565 22.74 7.18437 22.5422 6.98653C22.3444 6.78869 22.1931 6.54926 22.0993 6.28564H19.3868C19.2931 6.54926 19.1418 6.78869 18.944 6.98653C18.7461 7.18437 18.5067 7.33565 18.2431 7.42939V14.4106C18.2431 14.5764 18.1772 14.7354 18.06 14.8526C17.9428 14.9698 17.7838 15.0356 17.6181 15.0356C17.4523 15.0356 17.2933 14.9698 17.1761 14.8526C17.0589 14.7354 16.9931 14.5764 16.9931 14.4106V6.91064C16.9931 6.74488 17.0589 6.58591 17.1761 6.4687C17.2933 6.35149 17.4523 6.28564 17.6181 6.28564C17.7838 6.28564 17.9428 6.2198 18.06 6.10259C18.1772 5.98538 18.2431 5.8264 18.2431 5.66064C18.2431 5.49488 18.3089 5.33591 18.4261 5.2187C18.5433 5.10149 18.7023 5.03564 18.8681 5.03564H22.6181C22.7838 5.03564 22.9428 5.10149 23.06 5.2187C23.1772 5.33591 23.2431 5.49488 23.2431 5.66064C23.2431 5.8264 23.3089 5.98538 23.4261 6.10259C23.5433 6.2198 23.7023 6.28564 23.8681 6.28564C24.0338 6.28564 24.1928 6.35149 24.31 6.4687C24.4272 6.58591 24.4931 6.74488 24.4931 6.91064V14.4106C24.4931 14.5764 24.4272 14.7354 24.31 14.8526C24.1928 14.9698 24.0338 15.0356 23.8681 15.0356ZM5.11745 18.7856C5.01101 18.7855 4.90637 18.7581 4.81346 18.7062C4.72055 18.6543 4.64244 18.5795 4.58654 18.4889C4.53064 18.3983 4.4988 18.2949 4.49403 18.1886C4.48927 18.0823 4.51175 17.9765 4.55932 17.8813L8.30932 10.3813C8.36119 10.2775 8.44094 10.1902 8.53962 10.1291C8.63831 10.0681 8.75204 10.0357 8.86807 10.0356H15.1181C15.2838 10.0356 15.4428 10.1015 15.56 10.2187C15.6772 10.3359 15.7431 10.4949 15.7431 10.6606C15.7431 10.8264 15.6772 10.9854 15.56 11.1026C15.4428 11.2198 15.2838 11.2856 15.1181 11.2856H9.25432L5.67682 18.44C5.62496 18.5438 5.54521 18.6311 5.44653 18.6922C5.34784 18.7532 5.23349 18.7856 5.11745 18.7856Z" fill="#13BFB6"/>
<path d="M28.8682 15.0356H12.6182C12.4524 15.0356 12.2934 14.9698 12.1762 14.8526C12.059 14.7354 11.9932 14.5764 11.9932 14.4106C11.9932 14.2449 12.059 14.0859 12.1762 13.9687C12.2934 13.8515 12.4524 13.7856 12.6182 13.7856H28.8682C29.0339 13.7856 29.1929 13.8515 29.3101 13.9687C29.4273 14.0859 29.4932 14.2449 29.4932 14.4106C29.4932 14.5764 29.4273 14.7354 29.3101 14.8526C29.1929 14.9698 29.0339 15.0356 28.8682 15.0356ZM36.3688 18.7856C36.2526 18.7857 36.1388 18.7534 36.04 18.6923C35.9412 18.6313 35.8613 18.5439 35.8094 18.44L32.2319 11.2856H26.3682C26.2024 11.2856 26.0434 11.2198 25.9262 11.1026C25.809 10.9854 25.7432 10.8264 25.7432 10.6606C25.7432 10.4949 25.809 10.3359 25.9262 10.2187C26.0434 10.1015 26.2024 10.0356 26.3682 10.0356H32.6182C32.7342 10.0357 32.8479 10.0681 32.9466 10.1291C33.0453 10.1902 33.125 10.2775 33.1769 10.3813L36.9269 17.8813C36.9745 17.9764 36.9969 18.0822 36.9922 18.1885C36.9875 18.2947 36.9557 18.3981 36.8999 18.4886C36.844 18.5792 36.766 18.654 36.6732 18.706C36.5804 18.758 36.4752 18.7854 36.3688 18.7856Z" fill="#13BFB6"/>
<path d="M36.3682 37.5356H5.11816C4.9524 37.5356 4.79343 37.4698 4.67622 37.3526C4.55901 37.2354 4.49316 37.0764 4.49316 36.9106V18.1606C4.49316 17.9949 4.55901 17.8359 4.67622 17.7187C4.79343 17.6015 4.9524 17.5356 5.11816 17.5356C5.28392 17.5356 5.4429 17.6015 5.56011 17.7187C5.67732 17.8359 5.74316 17.9949 5.74316 18.1606V36.2856H35.7432V18.1606C35.7432 17.9949 35.809 17.8359 35.9262 17.7187C36.0434 17.6015 36.2024 17.5356 36.3682 17.5356C36.5339 17.5356 36.6929 17.6015 36.8101 17.7187C36.9273 17.8359 36.9932 17.9949 36.9932 18.1606V36.9106C36.9932 37.0764 36.9273 37.2354 36.8101 37.3526C36.6929 37.4698 36.5339 37.5356 36.3682 37.5356Z" fill="#13BFB6"/>
<path d="M36.3682 18.7856H5.11816C4.9524 18.7856 4.79343 18.7198 4.67622 18.6026C4.55901 18.4854 4.49316 18.3264 4.49316 18.1606C4.49316 17.9949 4.55901 17.8359 4.67622 17.7187C4.79343 17.6015 4.9524 17.5356 5.11816 17.5356H36.3682C36.5339 17.5356 36.6929 17.6015 36.8101 17.7187C36.9273 17.8359 36.9932 17.9949 36.9932 18.1606C36.9932 18.3264 36.9273 18.4854 36.8101 18.6026C36.6929 18.7198 36.5339 18.7856 36.3682 18.7856ZM20.7432 33.4794C20.6611 33.4796 20.5799 33.4635 20.504 33.4322C20.4282 33.4009 20.3593 33.3549 20.3013 33.2969L14.9982 27.9931C14.3044 27.2879 13.9173 26.3372 13.9214 25.3479C13.9254 24.3586 14.3201 23.411 15.0197 22.7115C15.7192 22.012 16.6668 21.6172 17.6561 21.6132C18.6453 21.6092 19.5961 21.9962 20.3013 22.69L20.7432 23.1319L21.185 22.69C21.8902 21.9962 22.841 21.6092 23.8303 21.6132C24.8195 21.6172 25.7671 22.012 26.4667 22.7115C27.1662 23.411 27.5609 24.3586 27.565 25.3479C27.569 26.3372 27.182 27.2879 26.4882 27.9931L21.185 33.2969C21.1271 33.355 21.0582 33.4011 20.9824 33.4325C20.9065 33.464 20.8252 33.4801 20.7432 33.48V33.4794ZM17.6494 22.8425C17.155 22.8425 16.6717 22.989 16.2607 23.2636C15.8496 23.5383 15.5292 23.9286 15.34 24.3854C15.1508 24.8421 15.1013 25.3447 15.1977 25.8296C15.2942 26.3145 15.5323 26.7598 15.8819 27.1094L20.7432 31.9713L25.6044 27.1094C26.0733 26.6405 26.3367 26.0046 26.3367 25.3416C26.3367 24.6785 26.0733 24.0426 25.6044 23.5738C25.1356 23.1049 24.4997 22.8415 23.8366 22.8415C23.1735 22.8415 22.5376 23.1049 22.0688 23.5738L21.185 24.4575C21.0678 24.5747 20.9089 24.6405 20.7432 24.6405C20.5774 24.6405 20.4185 24.5747 20.3013 24.4575L19.4175 23.5738C19.1855 23.3416 18.91 23.1575 18.6067 23.032C18.3034 22.9065 17.9783 22.8421 17.65 22.8425H17.6494Z" fill="#13BFB6"/>
</svg>
